<?xml version="1.0"?>
<svg xmlns="http://www.w3.org/2000/svg" xmlns:xlink="http://www.w3.org/1999/xlink" xmlns:svgjs="http://svgjs.com/svgjs" version="1.1" width="512" height="512" x="0" y="0" viewBox="0 0 512 512" style="enable-background:new 0 0 512 512" xml:space="preserve" class=""><g><g xmlns="http://www.w3.org/2000/svg" fill="#ff6aa0"><path d="m228 92h82.051a109.949 109.949 0 0 1 109.949 109.949v26.051a0 0 0 0 1 0 0h-82.051a109.949 109.949 0 0 1 -109.949-109.949v-26.051a0 0 0 0 1 0 0z" transform="matrix(0 1 -1 0 484 -164)" fill="#ff6aa0" data-original="#ff6aa0" style=""/><path d="m92 284h82.051a109.949 109.949 0 0 1 109.949 109.949v26.051a0 0 0 0 1 0 0h-82.051a109.949 109.949 0 0 1 -109.949-109.949v-26.051a0 0 0 0 1 0 0z" transform="matrix(0 1 -1 0 540 164)" fill="#ff6aa0" data-original="#ff6aa0" style=""/><path d="m256 256h82.051a109.949 109.949 0 0 1 109.949 109.949v26.051a0 0 0 0 1 0 0h-82.051a109.949 109.949 0 0 1 -109.949-109.949v-26.051a0 0 0 0 1 0 0z" transform="matrix(-1 0 0 -1 704 648)" fill="#ff6aa0" data-original="#ff6aa0" style=""/><path d="m64 120h82.051a109.949 109.949 0 0 1 109.949 109.949v26.051a0 0 0 0 1 0 0h-82.051a109.949 109.949 0 0 1 -109.949-109.949v-26.051a0 0 0 0 1 0 0z" transform="matrix(-1 0 0 -1 320 376)" fill="#ff6aa0" data-original="#ff6aa0" style=""/></g><path xmlns="http://www.w3.org/2000/svg" d="m256 256-58.849-58.849a109.755 109.755 0 0 0 -155.244 0l-17.907 17.908 58.849 58.848a109.753 109.753 0 0 0 155.244 0z" fill="#fd84b3" data-original="#fd84b3" style=""/><path xmlns="http://www.w3.org/2000/svg" d="m488 296.941-58.849-58.848a109.753 109.753 0 0 0 -155.244 0l-17.907 17.907 58.849 58.849a109.755 109.755 0 0 0 155.244 0z" fill="#fd84b3" data-original="#fd84b3" style=""/><path xmlns="http://www.w3.org/2000/svg" d="m173.949 256h82.051a0 0 0 0 1 0 0v26.051a109.949 109.949 0 0 1 -109.949 109.949h-82.051a0 0 0 0 1 0 0v-26.051a109.949 109.949 0 0 1 109.949-109.949z" fill="#fda2c6" data-original="#fda2c6" style=""/><path xmlns="http://www.w3.org/2000/svg" d="m365.949 120h82.051a0 0 0 0 1 0 0v26.051a109.949 109.949 0 0 1 -109.949 109.949h-82.051a0 0 0 0 1 0 0v-26.051a109.949 109.949 0 0 1 109.949-109.949z" fill="#fda2c6" data-original="#fda2c6" style=""/><path xmlns="http://www.w3.org/2000/svg" d="m256 256-58.018 58.018a109.951 109.951 0 0 0 0 155.493l18.018 18.489 58.42-58.087a109.951 109.951 0 0 0 0-155.493z" fill="#fd84b3" data-original="#fd84b3" style=""/><path xmlns="http://www.w3.org/2000/svg" d="m296 24-58.42 58.087a109.951 109.951 0 0 0 0 155.493l18.42 18.42 58.018-58.018a109.951 109.951 0 0 0 0-155.493z" fill="#fd84b3" data-original="#fd84b3" style=""/><path xmlns="http://www.w3.org/2000/svg" d="m337.949 284h82.051a0 0 0 0 1 0 0v26.051a109.949 109.949 0 0 1 -109.949 109.949h-82.051a0 0 0 0 1 0 0v-26.051a109.949 109.949 0 0 1 109.949-109.949z" fill="#fda2c6" transform="matrix(0 -1 1 0 -28 676)" data-original="#fda2c6" style=""/><path xmlns="http://www.w3.org/2000/svg" d="m201.949 92h82.051a0 0 0 0 1 0 0v26.051a109.949 109.949 0 0 1 -109.949 109.949h-82.051a0 0 0 0 1 0 0v-26.051a109.949 109.949 0 0 1 109.949-109.949z" fill="#fda2c6" transform="matrix(0 -1 1 0 28 348)" data-original="#fda2c6" style=""/><circle xmlns="http://www.w3.org/2000/svg" cx="256" cy="256" fill="#303030" r="56" data-original="#ffe76c" style="" class=""/></g></svg>
