<?xml version="1.0"?>
<svg xmlns="http://www.w3.org/2000/svg" xmlns:xlink="http://www.w3.org/1999/xlink" xmlns:svgjs="http://svgjs.com/svgjs" version="1.1" width="512" height="512" x="0" y="0" viewBox="0 0 64 64" style="enable-background:new 0 0 512 512" xml:space="preserve" class=""><g><g xmlns="http://www.w3.org/2000/svg" id="Layer_28" data-name="Layer 28"><path d="M62,31H52.651a1,1,0,0,0-.943,1.334,5,5,0,1,1-9.416,0A1,1,0,0,0,41.349,31H33V23.927A6.846,6.846,0,0,0,34,24a7,7,0,0,0,0-14,6.846,6.846,0,0,0-1,.073V2a1,1,0,0,0-1-1H2A1,1,0,0,0,1,2V62a1,1,0,0,0,1,1H62a1,1,0,0,0,1-1V32A1,1,0,0,0,62,31ZM3,3H31v8.349a1,1,0,0,0,1.333.942,5,5,0,1,1,0,9.418A1,1,0,0,0,31,22.651V31H23.926A6.711,6.711,0,0,0,24,30a7,7,0,0,0-14,0,6.711,6.711,0,0,0,.074,1H3ZM3,33h8.349a1,1,0,0,0,.943-1.334,5,5,0,1,1,9.416,0A1,1,0,0,0,22.651,33H31v7.073A6.846,6.846,0,0,0,30,40a7,7,0,0,0,0,14,6.846,6.846,0,0,0,1-.073V61H3ZM61,61H33V52.651a1,1,0,0,0-1.333-.942,5,5,0,1,1,0-9.418A1,1,0,0,0,33,41.349V33h7.074A6.711,6.711,0,0,0,40,34a7,7,0,0,0,14,0,6.711,6.711,0,0,0-.074-1H61Z" fill="#ffffff" data-original="#000000" style=""/><path d="M45,14h4a1,1,0,0,0,1-1V12a1,1,0,0,1,2,0,1.406,1.406,0,0,1-.414,1A8.767,8.767,0,0,0,49,19.242V20a1,1,0,0,0,1,1h4a1,1,0,0,0,1-1v-.758a2.011,2.011,0,0,1,.586-1.414A8.188,8.188,0,0,0,58,12a7,7,0,0,0-14,0v1A1,1,0,0,0,45,14Zm6-7a5.006,5.006,0,0,1,5,5,6.2,6.2,0,0,1-1.828,4.414A4.027,4.027,0,0,0,53.007,19H51a6.781,6.781,0,0,1,2-4.586A3.393,3.393,0,0,0,54,12a3,3,0,0,0-6,0H46A5.006,5.006,0,0,1,51,7Z" fill="#ffffff" data-original="#000000" style=""/><path d="M52,22a3,3,0,1,0,3,3A3,3,0,0,0,52,22Zm0,4a1,1,0,1,1,1-1A1,1,0,0,1,52,26Z" fill="#ffffff" data-original="#000000" style=""/></g></g></svg>
